<svg width="32" height="32" viewBox="0 0 32 32" fill="none" xmlns="http://www.w3.org/2000/svg">
<g clip-path="url(#clip0_38_30)">
<path d="M8.6272 1.79639C6.40666 2.9503 4.48739 4.60846 3.02328 6.63792C1.55917 8.66737 0.590955 11.0116 0.196267 13.4828H1.12427C7.10827 13.3441 11.7995 12.8257 15.6309 11.6524C13.9669 8.70199 11.936 5.80705 9.49973 2.86305L9.4976 2.86092L8.6272 1.79639ZM0.00426667 15.6161L0 16.0001C0 20.3031 1.69813 24.2092 4.4608 27.0849L4.80427 26.3937C4.82335 26.3555 4.84472 26.3184 4.86827 26.2828C8.40533 20.9025 12.4075 17.7025 16.8832 16.2668C17.1861 16.1687 17.4933 16.0791 17.8005 15.998C17.4422 15.1765 17.0602 14.3654 16.6549 13.566C12.4629 14.9164 7.424 15.4711 1.16053 15.614H0.0064L0.00426667 15.6161Z" fill="#474BFF"/>
<path d="M6.10132 28.5718C8.92011 30.7976 12.4083 32.0057 16 32C17.9051 32 19.7333 31.6672 21.4251 31.0571V29.5211C20.9045 25.3931 19.9893 21.6064 18.6133 17.9926C18.2507 18.0822 17.8901 18.1846 17.5339 18.2976C13.6469 19.5456 10.0139 22.3574 6.68585 27.4027L6.10345 28.5718H6.10132ZM23.5584 30.1056C25.6206 28.999 27.4154 27.4542 28.8167 25.5797C30.2179 23.7052 31.1916 21.5466 31.6693 19.2555L30.464 18.7115C26.9952 17.6918 23.7632 17.2736 20.7509 17.6128C22.112 21.2822 23.0272 25.135 23.5499 29.3206C23.5563 29.3632 23.5584 29.4059 23.5584 29.4528V30.1056ZM31.9659 17.0496C32.2475 12.8591 30.8637 8.72676 28.1152 5.55095L27.4816 6.25282C24.9856 9.28855 22.1355 11.3942 18.6709 12.8278C19.1232 13.7323 19.5456 14.6432 19.936 15.567C23.5029 15.055 27.2533 15.5371 31.1381 16.687C31.1855 16.7008 31.2318 16.7179 31.2768 16.7382L31.9659 17.0496ZM26.6155 4.02775C23.6912 1.42777 19.9129 -0.00581675 16 1.77392e-05C14.1269 1.77392e-05 12.3307 0.320018 10.6603 0.913084L11.1467 1.50615C13.7493 4.64855 15.9083 7.75468 17.6704 10.9312C20.9621 9.60215 23.5712 7.65868 25.8496 4.87895C25.8599 4.86589 25.8706 4.85309 25.8816 4.84055L26.6155 4.02988V4.02775Z" fill="#474BFF"/>
</g>
<defs>
<clipPath id="clip0_38_30">
<rect width="32" height="32" fill="white"/>
</clipPath>
</defs>
</svg>
