<svg width="100" height="100" viewBox="0 0 100 100" fill="none" xmlns="http://www.w3.org/2000/svg">
<path d="M68.6408 74.5775C66.1908 74.5822 63.8152 75.4199 61.9042 76.9531C59.9933 78.4866 58.6606 80.6242 58.1252 83.015H43.4533C42.9208 80.6253 41.5895 78.4886 39.6792 76.9572C37.7689 75.4258 35.3937 74.5913 32.9455 74.5913C30.4972 74.5913 28.122 75.4258 26.2117 76.9572C24.3016 78.4886 22.9703 80.6253 22.4377 83.015H14.1877C13.4293 83.0552 12.6706 82.9405 11.958 82.6778C11.2454 82.4152 10.5937 82.0103 10.0427 81.4877C9.49164 80.965 9.05282 80.3356 8.75294 79.6378C8.45305 78.94 8.29841 78.1886 8.29841 77.4291C8.29841 76.6697 8.45305 75.9181 8.75294 75.2203C9.05282 74.5227 9.49164 73.8933 10.0427 73.3706C10.5937 72.848 11.2454 72.443 11.958 72.1803C12.6706 71.9178 13.4293 71.803 14.1877 71.8431H24.5158C25.1373 71.8431 25.7336 71.5963 26.1731 71.1567C26.6127 70.7172 26.8595 70.1209 26.8595 69.4994C26.8595 68.8778 26.6127 68.2817 26.1731 67.842C25.7336 67.4025 25.1373 67.1556 24.5158 67.1556H14.1877C12.8048 67.1017 11.4254 67.3275 10.1319 67.8195C8.83839 68.3114 7.65755 69.0595 6.66011 70.0188C5.66266 70.9781 4.86914 72.1289 4.32713 73.4022C3.7851 74.6756 3.50571 76.0452 3.50571 77.4291C3.50571 78.813 3.7851 80.1827 4.32713 81.4559C4.86914 82.7292 5.66266 83.88 6.66011 84.8394C7.65755 85.7986 8.83839 86.5467 10.1319 87.0388C11.4254 87.5306 12.8048 87.7564 14.1877 87.7025H22.4377C22.9703 90.0922 24.3016 92.2289 26.2117 93.7603C28.122 95.2917 30.4972 96.1263 32.9455 96.1263C35.3937 96.1263 37.7689 95.2917 39.6792 93.7603C41.5895 92.2289 42.9208 90.0922 43.4533 87.7025H58.1252C58.5695 89.6808 59.5634 91.4933 60.9927 92.9316C62.4219 94.3697 64.2281 95.3752 66.2036 95.832C68.1789 96.2888 70.2433 96.1784 72.1587 95.5138C74.0742 94.8489 75.763 93.6567 77.0308 92.0745C78.2984 90.4922 79.0936 88.5839 79.3247 86.5695C79.5556 84.5553 79.2131 82.5166 78.3364 80.6884C77.4597 78.8602 76.0847 77.3167 74.3694 76.2356C72.6541 75.1545 70.6684 74.5797 68.6408 74.5775ZM32.9533 91.4369C31.7481 91.4338 30.5708 91.0734 29.5705 90.4013C28.57 89.7291 27.7914 88.7753 27.3331 87.6606C26.8747 86.5461 26.7572 85.3205 26.9953 84.1391C27.2336 82.9575 27.8167 81.8733 28.6711 81.0231C29.5255 80.1731 30.6128 79.5956 31.7955 79.3634C32.9781 79.1314 34.2031 79.2552 35.3153 79.7192C36.4277 80.1833 37.3773 80.9669 38.0444 81.9706C38.7114 82.9745 39.0658 84.1536 39.0627 85.3588C39.0606 86.1591 38.9009 86.9509 38.5928 87.6895C38.2847 88.4281 37.8341 89.0988 37.2669 89.6631C36.6995 90.2275 36.0266 90.6747 35.2864 90.9791C34.5464 91.2833 33.7536 91.4389 32.9533 91.4369ZM68.6408 91.4369C67.4342 91.44 66.2539 91.0849 65.2494 90.4164C64.245 89.748 63.4614 88.7964 62.9983 87.6824C62.5352 86.5683 62.4131 85.3417 62.6478 84.1581C62.8823 82.9747 63.4631 81.8874 64.3162 81.0342C65.1694 80.1811 66.2567 79.6003 67.4402 79.3658C68.6237 79.1311 69.8503 79.2531 70.9644 79.7163C72.0784 80.1794 73.03 80.963 73.6984 81.9674C74.3669 82.9719 74.722 84.1522 74.7189 85.3588C74.7148 86.9695 74.0731 88.5131 72.9341 89.652C71.7952 90.7911 70.2516 91.4328 68.6408 91.4369Z" fill="#9395FF"/>
<path d="M6.25 8.59375H16.1562L22.1719 14.7344V25.2031C22.1719 25.5109 22.2325 25.8156 22.3503 26.1C22.4681 26.3844 22.6408 26.6428 22.8583 26.8605C23.0759 27.078 23.3344 27.2506 23.6187 27.3684C23.9031 27.4862 24.2078 27.5469 24.5156 27.5469C24.8234 27.5469 25.1281 27.4862 25.4125 27.3684C25.6969 27.2506 25.9553 27.078 26.173 26.8605C26.3905 26.6428 26.5631 26.3844 26.6809 26.1C26.7987 25.8156 26.8594 25.5109 26.8594 25.2031V13.7656C26.8608 13.4614 26.8022 13.1599 26.6869 12.8784C26.5716 12.5968 26.4019 12.3408 26.1875 12.125L18.75 4.6875C18.3503 4.23414 17.79 3.95398 17.1875 3.90625H6.25C5.62841 3.90625 5.03225 4.15319 4.59272 4.59272C4.15319 5.03225 3.90625 5.62841 3.90625 6.25C3.90625 6.87159 4.15319 7.46775 4.59272 7.90728C5.03225 8.34681 5.62841 8.59375 6.25 8.59375Z" fill="#9395FF"/>
<path d="M74.782 71.3748H74.7811H24.5155C24.0266 71.3748 23.5576 71.1805 23.2118 70.8347C22.866 70.4889 22.6717 70.02 22.6717 69.5311V25.2029C22.6717 24.714 22.8661 24.2449 23.2118 23.8992C23.5576 23.5534 24.0265 23.3592 24.5155 23.3592L93.7498 23.3592L93.7505 23.3592C94.0467 23.3588 94.3386 23.4293 94.602 23.5646L94.6021 23.5646C94.8656 23.6999 95.0928 23.8962 95.2651 24.137C95.4374 24.378 95.5496 24.6566 95.5925 24.9497C95.6353 25.2427 95.6075 25.5417 95.5113 25.8218L95.5089 25.8291L82.4776 65.7666L82.4768 65.7693C81.9552 67.3993 80.9285 68.8212 79.5451 69.829L79.8395 70.2331L79.5451 69.829C78.1619 70.8368 76.4936 71.3781 74.782 71.3748ZM26.3592 67.1873V67.6873H26.8592L74.7787 67.6873C74.779 67.6873 74.7793 67.6873 74.7796 67.6873C75.7099 67.6916 76.6176 67.4003 77.3717 66.8554L77.3718 66.8554C78.1262 66.3101 78.6876 65.5394 78.9753 64.6544L90.9909 27.7327L91.204 27.0779H90.5155H26.8592H26.3592V27.5779V67.1873Z" fill="#474BFF" stroke="#474BFF"/>
</svg>
