<svg width="95" height="74" viewBox="0 0 95 74" fill="none" xmlns="http://www.w3.org/2000/svg">
<path fill-rule="evenodd" clip-rule="evenodd" d="M80.2227 69.5226L83.0987 74H95L86.1767 60.2518L80.2261 50.9825L74.272 41.7132L71.2466 36.9992L68.3213 32.444L62.3724 41.7132L47.595 64.7307L41.6461 74H53.5474L59.498 64.7307L68.3213 50.9825L74.272 60.2518L77.1481 64.7307L80.2227 69.5226ZM23.7941 74H35.6937L41.6444 64.7307L65.3469 27.8078L53.4456 9.26927L47.4949 0L23.7399 36.9992L20.7755 41.6339L15.9719 49.1115L14.8249 50.8986L0 73.9939H23.8026L23.7941 74ZM53.4456 27.8078L41.8242 45.9129L38.6003 50.9367L29.7447 64.7307H17.8435L26.7193 50.9047L27.8664 49.1177L32.6701 41.64L47.4966 18.5446L53.4456 27.8078Z" fill="url(#paint0_linear_711_18)"/>
<defs>
<linearGradient id="paint0_linear_711_18" x1="95" y1="36.3019" x2="-5.54461e-08" y2="36.3019" gradientUnits="userSpaceOnUse">
<stop stop-color="#474BFF"/>
<stop offset="1" stop-color="#8F92FF"/>
</linearGradient>
</defs>
</svg>
