<svg width="100" height="100" viewBox="0 0 100 100" fill="none" xmlns="http://www.w3.org/2000/svg">
<path d="M31.5654 71.8968L31.5647 71.8952C29.2267 66.6158 28.2365 60.8384 28.683 55.0817C29.1296 49.3251 30.9989 43.7695 34.1231 38.9138C37.2474 34.0581 41.5287 30.0544 46.5826 27.2623C51.6365 24.4701 57.3046 22.9769 63.0782 22.9166C68.9089 22.8618 74.6602 24.2703 79.8057 27.0133C84.9513 29.7564 89.3267 33.7462 92.5313 38.6178C95.7359 43.4893 97.6674 49.0868 98.1489 54.8979C98.6305 60.7091 97.6468 66.5482 95.2877 71.8807L95.2869 71.8828C94.7883 73.0234 94.0494 74.043 93.1207 74.8719C92.192 75.7008 91.0953 76.3195 89.9056 76.6858C88.7159 77.0521 87.4611 77.1573 86.227 76.9943C84.9935 76.8313 83.8096 76.4042 82.7562 75.742C76.9843 72.0486 70.2752 70.0858 63.4228 70.0858C56.5702 70.0858 49.8611 72.0487 44.0892 75.7421C43.037 76.4041 41.8545 76.8314 40.6223 76.995C39.3895 77.1586 38.1358 77.0545 36.9469 76.6896C35.7581 76.3246 34.6619 75.7076 33.7331 74.8805C32.8044 74.0534 32.065 73.0357 31.5654 71.8968ZM36.1599 63.9246C37.2799 64.673 38.5967 65.0724 39.9438 65.0724C40.8382 65.0724 41.7238 64.8963 42.5501 64.554C43.3765 64.2117 44.1273 63.71 44.7597 63.0776C45.3922 62.4452 45.8939 61.6943 46.2361 60.868C46.5784 60.0417 46.7546 59.156 46.7546 58.2616C46.7546 56.9146 46.3551 55.5978 45.6068 54.4778C44.8584 53.3577 43.7947 52.4848 42.5502 51.9693C41.3057 51.4538 39.9362 51.3189 38.6151 51.5817C37.2939 51.8445 36.0803 52.4931 35.1278 53.4456C34.1753 54.3981 33.5266 55.6117 33.2638 56.9329C33.001 58.254 33.1359 59.6235 33.6514 60.868C34.1669 62.1125 35.0398 63.1762 36.1599 63.9246ZM47.8231 48.2109C49.1442 47.9476 50.3575 47.2985 51.3097 46.3456C51.9419 45.7129 52.4433 44.9619 52.7852 44.1355C53.1272 43.309 53.3031 42.4233 53.3027 41.5289C53.3024 40.6345 53.1259 39.7489 52.7833 38.9227C52.4407 38.0965 51.9388 37.3458 51.3061 36.7136C50.3532 35.7615 49.1394 35.1133 47.8181 34.851C46.4969 34.5887 45.1275 34.7241 43.8832 35.24C42.6389 35.756 41.5755 36.6293 40.8275 37.7497C40.0796 38.87 39.6806 40.1869 39.6811 41.534C39.6816 42.881 40.0815 44.1977 40.8303 45.3174C41.5791 46.4372 42.6432 47.3097 43.8879 47.8248C45.1326 48.3398 46.502 48.4742 47.8231 48.2109ZM59.1698 39.9913C60.2904 40.7388 61.6075 41.1373 62.9545 41.1363C63.8489 41.1356 64.7345 40.9588 65.5605 40.6159C66.3866 40.273 67.137 39.7708 67.769 39.1379C68.401 38.5049 68.9021 37.7538 69.2438 36.9272C69.5854 36.1006 69.7609 35.2148 69.7603 34.3204C69.7593 32.9734 69.3588 31.6569 68.6096 30.5374C67.8604 29.4179 66.796 28.5457 65.5511 28.0312C64.3063 27.5166 62.9367 27.3827 61.6158 27.6465C60.2948 27.9103 59.0817 28.5599 58.1299 29.5131C57.1781 30.4663 56.5303 31.6804 56.2685 33.0017C56.0067 34.3231 56.1426 35.6924 56.659 36.9365C57.1754 38.1807 58.0492 39.2437 59.1698 39.9913ZM73.0061 42.1973C73.2704 43.5182 73.9204 44.731 74.874 45.6825C75.5071 46.3142 76.2585 46.815 77.0852 47.1564C77.9119 47.4977 78.7978 47.6729 79.6922 47.6719C80.5866 47.6709 81.472 47.4937 82.298 47.1505C83.1239 46.8073 83.8742 46.3048 84.5059 45.6717C85.4573 44.7181 86.1046 43.5038 86.366 42.1824C86.6273 40.8609 86.4909 39.4916 85.974 38.2477C85.4571 37.0037 84.583 35.941 83.4621 35.1939C82.3412 34.4468 81.024 34.0488 79.6769 34.0503C78.3299 34.0518 77.0135 34.4527 75.8943 35.2024C74.7751 35.952 73.9034 37.0167 73.3893 38.2618C72.8752 39.5068 72.7418 40.8764 73.0061 42.1973ZM83.1274 62.9819C84.2485 63.7286 85.5659 64.1261 86.913 64.1241C88.7193 64.1214 90.4506 63.4012 91.726 62.122C93.0013 60.8428 93.7163 59.1094 93.7136 57.3031C93.7116 55.956 93.3102 54.6398 92.5601 53.5209C91.8101 52.402 90.7451 51.5306 89.4998 51.017C88.2545 50.5033 86.8849 50.3705 85.5641 50.6353C84.2433 50.9001 83.0307 51.5505 82.0796 52.5045C81.1285 53.4584 80.4817 54.673 80.2209 55.9945C79.96 57.3161 80.097 58.6853 80.6143 59.9291C81.1317 61.1728 82.0062 62.2352 83.1274 62.9819Z" fill="#474BFF" stroke="#474BFF"/>
<path d="M23.8434 74.82C23.7729 72.8573 23.2336 70.9399 22.2707 69.2282C21.3078 67.5164 19.9491 66.06 18.3083 64.9806C16.4512 63.7881 14.2701 63.2008 12.0653 63.2995C9.8605 63.3982 7.74055 64.1781 5.99744 65.5318C4.41129 66.7756 3.1505 68.3855 2.32323 70.2236C1.49596 72.0617 1.12688 74.073 1.24766 76.0851C1.51871 81.6684 10.9387 91.0807 12.8243 93.912L12.8695 93.9799C12.9582 94.1203 13.0829 94.2344 13.2305 94.3105C13.3781 94.3865 13.5434 94.4217 13.7093 94.4125C13.8751 94.4032 14.0354 94.3497 14.1736 94.2577C14.3118 94.1656 14.4229 94.0382 14.4954 93.8888L14.5338 93.8163C16.136 90.789 24.1146 80.3985 23.8433 74.8197L23.8434 74.82Z" fill="#9395FF"/>
<path d="M6.54982 62.4299C8.27748 61.2514 10.314 60.6078 12.4051 60.5795C14.4962 60.5512 16.5494 61.1394 18.3083 62.2707C18.3845 62.3193 18.4568 62.3731 18.5317 62.4233C18.5707 61.895 18.6059 61.3647 18.6401 60.8369C18.9897 55.1058 19.1083 49.0782 18.9866 42.9227C18.8649 36.5424 18.4903 30.6771 17.8379 24.9959C17.4727 21.8183 17.045 18.8809 16.53 16.0217C16.4426 15.541 16.3521 15.0571 16.2584 14.5764C16.2054 14.3111 16.1554 14.0489 16.1024 13.7648L15.9619 13.0843C15.8526 12.5631 15.7434 12.0418 15.6248 11.5267C15.2221 9.71941 14.8631 8.3241 14.4573 7.0037V7.00057C14.3598 6.68823 14.1878 6.40429 13.9561 6.17318C13.7245 5.94208 13.4401 5.77074 13.1276 5.67393C12.6192 5.51872 12.0701 5.57158 11.6007 5.8209C11.1313 6.07022 10.7801 6.49562 10.6241 7.0037C10.2214 8.3241 9.85936 9.7194 9.4567 11.5205C9.33806 12.0449 9.22882 12.5693 9.11956 13.0906L8.97597 13.7836C8.92604 14.0458 8.87611 14.308 8.82614 14.5671C8.73248 15.054 8.63886 15.5379 8.55457 16.0217C8.03953 18.8841 7.60876 21.8183 7.24355 24.996C6.59429 30.6771 6.21659 36.5424 6.09799 42.9226C5.97626 49.0782 6.09174 55.1058 6.44134 60.8369C6.47559 61.3679 6.5108 61.8989 6.54982 62.4299Z" fill="#9395FF"/>
</svg>
