<svg width="100" height="100" viewBox="0 0 100 100" fill="none" xmlns="http://www.w3.org/2000/svg">
<path d="M90 30V87.5C90 94.3945 84.3945 100 77.5 100H22.5C15.6055 100 10 94.3945 10 87.5V12.5C10 5.60547 15.6055 0 22.5 0H60.0195L66.543 6.52344L90 30Z" fill="#9395FF"/>
<path d="M60.5 1.18812L88.7934 29.5H72.5C65.8816 29.5 60.5 24.1184 60.5 17.5V1.18812Z" fill="#474BFF" stroke="#474BFF"/>
<g opacity="0.06">
<path opacity="0.06" d="M72.5 34.5C65.8823 34.5 60.5011 29.1195 60.5 22.502C62.4626 27.1955 67.1011 30.5 72.5 30.5H89.5V34.5H72.5Z" fill="#474BFF" stroke="#474BFF"/>
</g>
<path d="M42 53.1367V79.5H38V53.1367H42Z" fill="#474BFF" stroke="#474BFF"/>
<path d="M55.6055 59.582V59.5822L55.6186 59.5819C56.3068 59.5638 56.9769 59.654 57.6505 59.8543L58.293 60.0453V59.375V53H61.9023V75C61.9023 75.7523 61.9607 76.6775 62.0016 77.326C62.0079 77.4255 62.0138 77.5185 62.019 77.6034C59.6983 78.8155 57.0729 79.5 54.668 79.5C51.9405 79.5 49.6618 78.7085 48.0665 77.1519C46.4739 75.598 45.5 73.2206 45.5 69.9219C45.5 64.2847 49.4109 59.582 55.6055 59.582ZM58.2937 52.7778C58.2938 52.7779 58.2937 52.7793 58.2933 52.782C58.2934 52.7791 58.2937 52.7778 58.2937 52.7778ZM57.8649 63.2227L57.9504 62.755C57.164 62.4575 56.3394 62.3313 55.5016 62.3516C53.6465 62.3532 52.0622 63.0806 50.9483 64.3819C49.8389 65.6779 49.2266 67.5059 49.2266 69.668C49.2266 72.053 49.8826 73.798 50.9898 74.9487C52.0974 76.0998 53.5965 76.5938 55.1562 76.5938C56.0868 76.5938 57.018 76.449 57.9087 76.159L58.2539 76.0466V75.6836V63.2227H57.8649Z" fill="#474BFF" stroke="#474BFF"/>
</svg>
