<svg width="270" height="76" viewBox="0 0 270 76" fill="none" xmlns="http://www.w3.org/2000/svg">
<path fill-rule="evenodd" clip-rule="evenodd" d="M254.568 69.5226L257.444 74H269.345L260.522 60.2518L254.571 50.9825L248.617 41.7132L245.591 36.9992L242.666 32.444L236.717 41.7132L221.94 64.7307L215.991 74H227.892L233.843 64.7307L242.666 50.9825L248.617 60.2518L251.493 64.7307L254.568 69.5226ZM198.139 74H210.039L215.989 64.7307L239.692 27.8078L227.79 9.26927L221.84 0L198.085 36.9992L195.12 41.6339L190.317 49.1115L189.17 50.8986L174.345 73.9939H198.147L198.139 74ZM227.79 27.8078L216.169 45.9129L212.945 50.9367L204.09 64.7307H192.188L201.064 50.9047L202.211 49.1177L207.015 41.64L221.841 18.5446L227.79 27.8078Z" fill="url(#paint0_linear_7_7)"/>
<path d="M13.284 53.4878C9.42 53.4878 6.48 52.7438 4.464 51.2558C2.448 49.7438 1.44 47.5118 1.44 44.5598C1.44 43.9838 1.476 43.3838 1.548 42.7598C1.62 42.1118 1.704 41.4998 1.8 40.9238C1.92 40.3238 2.028 39.7958 2.124 39.3398C2.22 38.8838 2.292 38.5478 2.34 38.3318L7.02 39.2318C6.948 39.6158 6.852 40.1078 6.732 40.7078C6.612 41.3078 6.504 41.9438 6.408 42.6158C6.312 43.2638 6.264 43.8878 6.264 44.4878C6.264 45.7358 6.528 46.7198 7.056 47.4398C7.584 48.1358 8.388 48.6278 9.468 48.9158C10.548 49.1798 11.904 49.3118 13.536 49.3118H23.148V35.4158H27.972V53.4878H13.284ZM9.648 36.7478V32.6438H14.472V36.7478H9.648ZM14.58 36.7478V32.6438H19.404V36.7478H14.58ZM31.5321 62.4158C31.2201 62.4158 30.8841 62.4038 30.5241 62.3798C30.1641 62.3558 29.7921 62.3198 29.4081 62.2718L29.5881 58.1678C29.9721 58.1918 30.3321 58.2158 30.6681 58.2398C31.0281 58.2638 31.2921 58.2758 31.4601 58.2758C32.3961 58.2758 33.1401 57.9038 33.6921 57.1598C34.2681 56.4158 34.5561 55.3718 34.5561 54.0278V35.4158H39.3801V54.0278C39.3801 55.6598 39.0441 57.1118 38.3721 58.3838C37.7241 59.6558 36.8121 60.6398 35.6361 61.3358C34.4601 62.0558 33.0921 62.4158 31.5321 62.4158ZM45.0408 53.4878V28.0358H49.8288V53.4878H45.0408ZM88.8978 53.4878V49.3118H92.6778V53.4878H88.8978ZM74.2098 53.4878C70.3458 53.4878 67.4058 52.7438 65.3898 51.2558C63.3738 49.7438 62.3658 47.5118 62.3658 44.5598C62.3658 43.9838 62.4018 43.3838 62.4738 42.7598C62.5458 42.1118 62.6298 41.4998 62.7258 40.9238C62.8458 40.3238 62.9538 39.7958 63.0498 39.3398C63.1458 38.8838 63.2178 38.5478 63.2658 38.3318L67.9458 39.2318C67.8738 39.6158 67.7778 40.1078 67.6578 40.7078C67.5378 41.3078 67.4298 41.9438 67.3338 42.6158C67.2378 43.2638 67.1898 43.8878 67.1898 44.4878C67.1898 45.7358 67.4538 46.7198 67.9818 47.4398C68.5098 48.1358 69.3138 48.6278 70.3938 48.9158C71.4738 49.1798 72.8298 49.3118 74.4618 49.3118H84.0738V35.4158H88.8978V53.4878H74.2098ZM92.6778 53.4878V49.3118C92.9658 49.3118 93.1578 49.5038 93.2538 49.8878C93.3498 50.2478 93.3978 50.7518 93.3978 51.3998C93.3978 52.0238 93.3498 52.5278 93.2538 52.9118C93.1578 53.2958 92.9658 53.4878 92.6778 53.4878ZM70.5738 36.7478V32.6438H75.3978V36.7478H70.5738ZM75.5058 36.7478V32.6438H80.3298V36.7478H75.5058ZM103.184 53.4878V49.3118H107.684V53.4878H103.184ZM107.684 53.4878V49.3118C107.972 49.3118 108.164 49.5038 108.26 49.8878C108.356 50.2478 108.404 50.7518 108.404 51.3998C108.404 52.0238 108.356 52.5278 108.26 52.9118C108.164 53.2958 107.972 53.4878 107.684 53.4878ZM92.6719 53.4878V49.3118H101.204L98.3959 51.6518V35.4158H103.184V53.4878H92.6719ZM92.6719 53.4878C92.3839 53.4878 92.1919 53.2958 92.0959 52.9118C91.9999 52.5278 91.9519 52.0238 91.9519 51.3998C91.9519 50.7518 91.9999 50.2478 92.0959 49.8878C92.1919 49.5038 92.3839 49.3118 92.6719 49.3118V53.4878ZM94.1119 60.9758V56.8718H98.9359V60.9758H94.1119ZM99.0439 60.9758V56.8718H103.868V60.9758H99.0439ZM126.332 53.4878V49.3118H130.148V53.4878H126.332ZM107.684 53.4878V49.3118H123.164L121.544 50.6438V43.9838C121.544 42.5438 121.088 41.4518 120.176 40.7078C119.288 39.9638 117.872 39.5918 115.928 39.5918C115.376 39.5918 114.62 39.6398 113.66 39.7358C112.7 39.8078 111.656 39.9278 110.528 40.0958L110.06 36.2798C111.092 36.0398 112.136 35.8358 113.192 35.6678C114.272 35.4998 115.328 35.4158 116.36 35.4158C118.328 35.4158 120.056 35.7638 121.544 36.4598C123.032 37.1318 124.196 38.1038 125.036 39.3758C125.9 40.6478 126.332 42.1838 126.332 43.9838V53.4878H107.684ZM107.684 53.4878C107.396 53.4878 107.204 53.2958 107.108 52.9118C107.012 52.5278 106.964 52.0238 106.964 51.3998C106.964 50.7518 107.012 50.2478 107.108 49.8878C107.204 49.5038 107.396 49.3118 107.684 49.3118V53.4878ZM130.148 53.4878V49.3118C130.412 49.3118 130.592 49.5038 130.688 49.8878C130.808 50.2478 130.868 50.7518 130.868 51.3998C130.868 52.0238 130.808 52.5278 130.688 52.9118C130.592 53.2958 130.412 53.4878 130.148 53.4878ZM114.632 61.1558V57.0518H119.456V61.1558H114.632ZM130.148 53.4878V49.3118H138.68L135.872 51.6518V35.4158H140.66V53.4878H130.148ZM130.148 53.4878C129.86 53.4878 129.668 53.2958 129.572 52.9118C129.476 52.5278 129.428 52.0238 129.428 51.3998C129.428 50.7518 129.476 50.2478 129.572 49.8878C129.668 49.5038 129.86 49.3118 130.148 49.3118V53.4878ZM131.588 60.9758V56.8718H136.412V60.9758H131.588ZM136.52 60.9758V56.8718H141.344V60.9758H136.52ZM144.737 53.4878V49.3118H157.805L154.529 52.1558V46.1078C154.529 44.4038 154.349 43.0838 153.989 42.1478C153.653 41.2118 153.077 40.5518 152.261 40.1678C151.469 39.7838 150.377 39.5918 148.985 39.5918H146.069V35.4158H148.985C151.193 35.4158 153.065 35.7758 154.601 36.4958C156.161 37.2158 157.337 38.3678 158.129 39.9518C158.945 41.5118 159.353 43.5638 159.353 46.1078V53.4878H144.737Z" fill="black"/>
<defs>
<linearGradient id="paint0_linear_7_7" x1="269.345" y1="36.3019" x2="174.345" y2="36.3019" gradientUnits="userSpaceOnUse">
<stop stop-color="#474BFF"/>
<stop offset="1" stop-color="#8F92FF"/>
</linearGradient>
</defs>
</svg>
