<svg width="271" height="76" viewBox="0 0 271 76" fill="none" xmlns="http://www.w3.org/2000/svg">
<path fill-rule="evenodd" clip-rule="evenodd" d="M255.548 69.5226L258.428 74H270.347L261.511 60.2518L255.552 50.9825L249.589 41.7132L246.559 36.9992L243.63 32.444L237.672 41.7132L222.874 64.7307L216.916 74H228.835L234.794 64.7307L243.63 50.9825L249.589 60.2518L252.469 64.7307L255.548 69.5226ZM199.039 74H210.956L216.915 64.7307L240.651 27.8078L228.733 9.26927L222.774 0L198.985 36.9992L196.016 41.6339L191.206 49.1115L190.057 50.8986L175.211 73.9939H199.047L199.039 74ZM228.733 27.8078L217.095 45.9129L213.866 50.9367L204.998 64.7307H193.08L201.968 50.9047L203.117 49.1177L207.928 41.64L222.775 18.5446L228.733 27.8078Z" fill="url(#paint0_linear_62_4)"/>
<path d="M13.9006 53.4878C10.0366 53.4878 7.09658 52.7438 5.08058 51.2558C3.06458 49.7438 2.05658 47.5118 2.05658 44.5598C2.05658 43.9838 2.09258 43.3838 2.16458 42.7598C2.23658 42.1118 2.32058 41.4998 2.41658 40.9238C2.53658 40.3238 2.64458 39.7958 2.74058 39.3398C2.83658 38.8838 2.90858 38.5478 2.95658 38.3318L7.63658 39.2318C7.56458 39.6158 7.46858 40.1078 7.34858 40.7078C7.22858 41.3078 7.12058 41.9438 7.02458 42.6158C6.92858 43.2638 6.88058 43.8878 6.88058 44.4878C6.88058 45.7358 7.14458 46.7198 7.67258 47.4398C8.20058 48.1358 9.00458 48.6278 10.0846 48.9158C11.1646 49.1798 12.5206 49.3118 14.1526 49.3118H23.7646V35.4158H28.5886V53.4878H13.9006ZM10.2646 36.7478V32.6438H15.0886V36.7478H10.2646ZM15.1966 36.7478V32.6438H20.0206V36.7478H15.1966ZM32.1486 62.4158C31.8366 62.4158 31.5006 62.4038 31.1406 62.3798C30.7806 62.3558 30.4086 62.3198 30.0246 62.2718L30.2046 58.1678C30.5886 58.1918 30.9486 58.2158 31.2846 58.2398C31.6446 58.2638 31.9086 58.2758 32.0766 58.2758C33.0126 58.2758 33.7566 57.9038 34.3086 57.1598C34.8846 56.4158 35.1726 55.3718 35.1726 54.0278V35.4158H39.9966V54.0278C39.9966 55.6598 39.6606 57.1118 38.9886 58.3838C38.3406 59.6558 37.4286 60.6398 36.2526 61.3358C35.0766 62.0558 33.7086 62.4158 32.1486 62.4158ZM45.6574 53.4878V28.0358H50.4454V53.4878H45.6574ZM89.5144 53.4878V49.3118H93.2944V53.4878H89.5144ZM74.8264 53.4878C70.9624 53.4878 68.0224 52.7438 66.0064 51.2558C63.9904 49.7438 62.9824 47.5118 62.9824 44.5598C62.9824 43.9838 63.0184 43.3838 63.0904 42.7598C63.1624 42.1118 63.2464 41.4998 63.3424 40.9238C63.4624 40.3238 63.5704 39.7958 63.6664 39.3398C63.7624 38.8838 63.8344 38.5478 63.8824 38.3318L68.5624 39.2318C68.4904 39.6158 68.3944 40.1078 68.2744 40.7078C68.1544 41.3078 68.0464 41.9438 67.9504 42.6158C67.8544 43.2638 67.8064 43.8878 67.8064 44.4878C67.8064 45.7358 68.0704 46.7198 68.5984 47.4398C69.1264 48.1358 69.9304 48.6278 71.0104 48.9158C72.0904 49.1798 73.4464 49.3118 75.0784 49.3118H84.6904V35.4158H89.5144V53.4878H74.8264ZM93.2944 53.4878V49.3118C93.5824 49.3118 93.7744 49.5038 93.8704 49.8878C93.9664 50.2478 94.0144 50.7518 94.0144 51.3998C94.0144 52.0238 93.9664 52.5278 93.8704 52.9118C93.7744 53.2958 93.5824 53.4878 93.2944 53.4878ZM71.1904 36.7478V32.6438H76.0144V36.7478H71.1904ZM76.1224 36.7478V32.6438H80.9464V36.7478H76.1224ZM103.8 53.4878V49.3118H108.3V53.4878H103.8ZM108.3 53.4878V49.3118C108.588 49.3118 108.78 49.5038 108.876 49.8878C108.972 50.2478 109.02 50.7518 109.02 51.3998C109.02 52.0238 108.972 52.5278 108.876 52.9118C108.78 53.2958 108.588 53.4878 108.3 53.4878ZM93.2885 53.4878V49.3118H101.82L99.0125 51.6518V35.4158H103.8V53.4878H93.2885ZM93.2885 53.4878C93.0005 53.4878 92.8085 53.2958 92.7125 52.9118C92.6165 52.5278 92.5685 52.0238 92.5685 51.3998C92.5685 50.7518 92.6165 50.2478 92.7125 49.8878C92.8085 49.5038 93.0005 49.3118 93.2885 49.3118V53.4878ZM94.7285 60.9758V56.8718H99.5525V60.9758H94.7285ZM99.6605 60.9758V56.8718H104.484V60.9758H99.6605ZM126.948 53.4878V49.3118H130.764V53.4878H126.948ZM108.3 53.4878V49.3118H123.78L122.16 50.6438V43.9838C122.16 42.5438 121.704 41.4518 120.792 40.7078C119.904 39.9638 118.488 39.5918 116.544 39.5918C115.992 39.5918 115.236 39.6398 114.276 39.7358C113.316 39.8078 112.272 39.9278 111.144 40.0958L110.676 36.2798C111.708 36.0398 112.752 35.8358 113.808 35.6678C114.888 35.4998 115.944 35.4158 116.976 35.4158C118.944 35.4158 120.672 35.7638 122.16 36.4598C123.648 37.1318 124.812 38.1038 125.652 39.3758C126.516 40.6478 126.948 42.1838 126.948 43.9838V53.4878H108.3ZM108.3 53.4878C108.012 53.4878 107.82 53.2958 107.724 52.9118C107.628 52.5278 107.58 52.0238 107.58 51.3998C107.58 50.7518 107.628 50.2478 107.724 49.8878C107.82 49.5038 108.012 49.3118 108.3 49.3118V53.4878ZM130.764 53.4878V49.3118C131.028 49.3118 131.208 49.5038 131.304 49.8878C131.424 50.2478 131.484 50.7518 131.484 51.3998C131.484 52.0238 131.424 52.5278 131.304 52.9118C131.208 53.2958 131.028 53.4878 130.764 53.4878ZM115.248 61.1558V57.0518H120.072V61.1558H115.248ZM130.765 53.4878V49.3118H139.297L136.489 51.6518V35.4158H141.277V53.4878H130.765ZM130.765 53.4878C130.477 53.4878 130.285 53.2958 130.189 52.9118C130.093 52.5278 130.045 52.0238 130.045 51.3998C130.045 50.7518 130.093 50.2478 130.189 49.8878C130.285 49.5038 130.477 49.3118 130.765 49.3118V53.4878ZM132.205 60.9758V56.8718H137.029V60.9758H132.205ZM137.137 60.9758V56.8718H141.961V60.9758H137.137ZM145.353 53.4878V49.3118H158.421L155.145 52.1558V46.1078C155.145 44.4038 154.965 43.0838 154.605 42.1478C154.269 41.2118 153.693 40.5518 152.877 40.1678C152.085 39.7838 150.993 39.5918 149.601 39.5918H146.685V35.4158H149.601C151.809 35.4158 153.681 35.7758 155.217 36.4958C156.777 37.2158 157.953 38.3678 158.745 39.9518C159.561 41.5118 159.969 43.5638 159.969 46.1078V53.4878H145.353Z" fill="#474BFF"/>
<defs>
<linearGradient id="paint0_linear_62_4" x1="270.347" y1="36.3019" x2="175.211" y2="36.3019" gradientUnits="userSpaceOnUse">
<stop stop-color="#474BFF"/>
<stop offset="1" stop-color="#8F92FF"/>
</linearGradient>
</defs>
</svg>
