<svg width="100" height="100" viewBox="0 0 100 100" fill="none" xmlns="http://www.w3.org/2000/svg">
<path d="M93.8594 21.2031V12.5C93.8594 10.428 93.0363 8.44086 91.5711 6.97573C90.106 5.5106 88.1189 4.6875 86.0469 4.6875H12.5C10.428 4.6875 8.44086 5.5106 6.97573 6.97573C5.5106 8.44086 4.6875 10.428 4.6875 12.5V70.3125C4.6875 72.3845 5.5106 74.3716 6.97573 75.8368C8.44086 77.3019 10.428 78.125 12.5 78.125H17.4219V93.75C17.4219 94.1644 17.5865 94.5618 17.8795 94.8549C18.1725 95.1479 18.57 95.3125 18.9844 95.3125H81.25C81.6644 95.3125 82.0618 95.1479 82.3549 94.8549C82.6479 94.5618 82.8125 94.1644 82.8125 93.75C82.8125 93.3356 82.6479 92.9382 82.3549 92.6451C82.0618 92.3521 81.6644 92.1875 81.25 92.1875H20.5469V31.4844C20.5469 31.07 20.3823 30.6725 20.0892 30.3795C19.7962 30.0865 19.3988 29.9219 18.9844 29.9219C18.57 29.9219 18.1725 30.0865 17.8795 30.3795C17.5865 30.6725 17.4219 31.07 17.4219 31.4844V75H12.5C11.2568 75 10.0645 74.5061 9.18544 73.6271C8.30636 72.748 7.8125 71.5557 7.8125 70.3125V22.7656H90.7344V70.3125C90.7344 71.5557 90.2405 72.748 89.3614 73.6271C88.4824 74.5061 87.2901 75 86.0469 75H74.5C74.0856 75 73.6882 75.1646 73.3951 75.4576C73.1021 75.7507 72.9375 76.1481 72.9375 76.5625C72.9375 76.9769 73.1021 77.3743 73.3951 77.6674C73.6882 77.9604 74.0856 78.125 74.5 78.125H86.0469C88.1189 78.125 90.106 77.3019 91.5711 75.8368C93.0363 74.3716 93.8594 72.3845 93.8594 70.3125V21.2188V21.2031ZM7.8125 19.6406V12.5C7.8125 11.2568 8.30636 10.0645 9.18544 9.18544C10.0645 8.30636 11.2568 7.8125 12.5 7.8125H86.0469C87.2901 7.8125 88.4824 8.30636 89.3614 9.18544C90.2405 10.0645 90.7344 11.2568 90.7344 12.5V19.6406H7.8125Z" fill="white"/>
<path d="M18.9844 12.1719H17.1875C16.7731 12.1719 16.3757 12.3365 16.0826 12.6295C15.7896 12.9225 15.625 13.32 15.625 13.7344C15.625 14.1488 15.7896 14.5462 16.0826 14.8392C16.3757 15.1323 16.7731 15.2969 17.1875 15.2969H18.9375C19.3519 15.2969 19.7493 15.1323 20.0424 14.8392C20.3354 14.5462 20.5 14.1488 20.5 13.7344C20.5 13.32 20.3354 12.9225 20.0424 12.6295C19.7493 12.3365 19.3519 12.1719 18.9375 12.1719H18.9844Z" fill="white"/>
<path d="M25.7187 12.1719H23.9688C23.5543 12.1719 23.1569 12.3365 22.8639 12.6295C22.5709 12.9225 22.4062 13.32 22.4062 13.7344C22.4062 14.1488 22.5709 14.5462 22.8639 14.8392C23.1569 15.1323 23.5543 15.2969 23.9688 15.2969H25.7187C26.1332 15.2969 26.5306 15.1323 26.8236 14.8392C27.1166 14.5462 27.2812 14.1488 27.2812 13.7344C27.2812 13.32 27.1166 12.9225 26.8236 12.6295C26.5306 12.3365 26.1332 12.1719 25.7187 12.1719Z" fill="white"/>
<path d="M32.4688 12.1719H30.7031C30.2887 12.1719 29.8913 12.3365 29.5983 12.6295C29.3052 12.9225 29.1406 13.32 29.1406 13.7344C29.1406 14.1488 29.3052 14.5462 29.5983 14.8392C29.8913 15.1323 30.2887 15.2969 30.7031 15.2969H32.4688C32.8832 15.2969 33.2806 15.1323 33.5736 14.8392C33.8666 14.5462 34.0312 14.1488 34.0312 13.7344C34.0312 13.32 33.8666 12.9225 33.5736 12.6295C33.2806 12.3365 32.8832 12.1719 32.4688 12.1719Z" fill="white"/>
<path d="M82.8125 12.1719H69.0469C68.6325 12.1719 68.2351 12.3365 67.942 12.6295C67.649 12.9225 67.4844 13.32 67.4844 13.7344C67.4844 14.1488 67.649 14.5462 67.942 14.8392C68.2351 15.1323 68.6325 15.2969 69.0469 15.2969H82.8125C83.2269 15.2969 83.6243 15.1323 83.9174 14.8392C84.2104 14.5462 84.375 14.1488 84.375 13.7344C84.375 13.32 84.2104 12.9225 83.9174 12.6295C83.6243 12.3365 83.2269 12.1719 82.8125 12.1719Z" fill="white"/>
<path d="M33.7969 44.1406H27.0938C26.6793 44.1406 26.2819 44.3052 25.9889 44.5983C25.6959 44.8913 25.5312 45.2887 25.5312 45.7031V87.8906C25.5312 88.305 25.6959 88.7025 25.9889 88.9955C26.2819 89.2885 26.6793 89.4531 27.0938 89.4531H33.7969C34.2113 89.4531 34.6087 89.2885 34.9017 88.9955C35.1948 88.7025 35.3594 88.305 35.3594 87.8906V45.7031C35.3594 45.2887 35.1948 44.8913 34.9017 44.5983C34.6087 44.3052 34.2113 44.1406 33.7969 44.1406ZM32.2344 86.3281H28.6563V47.2656H32.2344V86.3281Z" fill="#9395FF"/>
<path d="M47.3594 59.7812H40.625C40.2106 59.7812 39.8132 59.9459 39.5201 60.2389C39.2271 60.5319 39.0625 60.9293 39.0625 61.3438V87.9063C39.0625 88.3207 39.2271 88.7181 39.5201 89.0111C39.8132 89.3041 40.2106 89.4688 40.625 89.4688H47.3281C47.7425 89.4688 48.14 89.3041 48.433 89.0111C48.726 88.7181 48.8906 88.3207 48.8906 87.9063V61.3438C48.8907 60.9347 48.7304 60.5419 48.4441 60.2498C48.1578 59.9577 47.7683 59.7894 47.3594 59.7812ZM45.7969 86.3438H42.1875V62.9063H45.7656L45.7969 86.3438Z" fill="#9395FF"/>
<path d="M60.9375 49.4688H54.2344C53.82 49.4687 53.4225 49.6334 53.1295 49.9264C52.8365 50.2194 52.6719 50.6168 52.6719 51.0312V87.9531C52.6719 88.3675 52.8365 88.765 53.1295 89.058C53.4225 89.351 53.82 89.5156 54.2344 89.5156H60.9375C61.3519 89.5156 61.7493 89.351 62.0424 89.058C62.3354 88.765 62.5 88.3675 62.5 87.9531V51.0312C62.5 50.6168 62.3354 50.2194 62.0424 49.9264C61.7493 49.6334 61.3519 49.4688 60.9375 49.4688ZM59.375 86.3906H55.7969V52.5937H59.375V86.3906Z" fill="#9395FF"/>
<path d="M74.5 38.8125H67.7969C67.3825 38.8125 66.985 38.9771 66.692 39.2701C66.399 39.5632 66.2344 39.9606 66.2344 40.375V87.9531C66.2344 88.3675 66.399 88.765 66.692 89.058C66.985 89.351 67.3825 89.5156 67.7969 89.5156H74.5C74.9144 89.5156 75.3118 89.351 75.6049 89.058C75.8979 88.765 76.0625 88.3675 76.0625 87.9531V40.375C76.0625 39.9606 75.8979 39.5632 75.6049 39.2701C75.3118 38.9771 74.9144 38.8125 74.5 38.8125ZM72.9375 86.3906H69.3594V41.9375H72.9375V86.3906Z" fill="#9395FF"/>
</svg>
